<svg xmlns="http://www.w3.org/2000/svg" xmlns:xlink="http://www.w3.org/1999/xlink" width="1019" height="271" viewBox="0 0 1019 271"><defs><path id="z49sa" d="M465.6 1500.363h988.8v183.345H465.6z"/><path id="z49sb" d="M494.4 1681.788h988.8v49.917h-75.597c-.988-22.094-19.214-39.703-41.553-39.703-22.34 0-40.566 17.61-41.554 39.703h-13.373c-.988-22.094-19.214-39.703-41.553-39.703-22.34 0-40.566 17.61-41.554 39.703H792.244c-.989-22.094-19.215-39.703-41.554-39.703-22.34 0-40.566 17.61-41.554 39.703h-13.372c-.989-22.094-19.215-39.703-41.554-39.703-22.34 0-40.566 17.61-41.554 39.703h-13.372c-.989-22.094-19.215-39.703-41.554-39.703-22.34 0-40.566 17.61-41.554 39.703H494.4z"/><path id="z49sc" d="M557.73 1696.08c20.72 0 37.517 16.796 37.517 37.514 0 20.719-16.797 37.514-37.517 37.514-20.72 0-37.517-16.795-37.517-37.514 0-20.718 16.797-37.514 37.517-37.514z"/><path id="z49sd" d="M557.73 1713.565c11.063 0 20.031 8.967 20.031 20.03 0 11.062-8.968 20.03-20.031 20.03-11.063 0-20.032-8.968-20.032-20.03 0-11.063 8.969-20.03 20.032-20.03z"/><path id="z49se" d="M557.73 1724.025c5.285 0 9.57 4.285 9.57 9.57 0 5.284-4.285 9.569-9.57 9.569-5.286 0-9.57-4.285-9.57-9.57 0-5.284 4.284-9.569 9.57-9.569z"/><path id="z49sf" d="M654.69 1696.08c20.72 0 37.517 16.796 37.517 37.514 0 20.719-16.797 37.514-37.517 37.514-20.72 0-37.517-16.795-37.517-37.514 0-20.718 16.797-37.514 37.517-37.514z"/><path id="z49sg" d="M654.69 1713.565c11.063 0 20.031 8.967 20.031 20.03 0 11.062-8.968 20.03-20.031 20.03-11.063 0-20.032-8.968-20.032-20.03 0-11.063 8.969-20.03 20.032-20.03z"/><path id="z49sh" d="M654.69 1724.025c5.285 0 9.57 4.285 9.57 9.57 0 5.284-4.285 9.569-9.57 9.569-5.286 0-9.57-4.285-9.57-9.57 0-5.284 4.284-9.569 9.57-9.569z"/><path id="z49si" d="M750.69 1696.08c20.72 0 37.517 16.796 37.517 37.514 0 20.719-16.797 37.514-37.517 37.514-20.72 0-37.517-16.795-37.517-37.514 0-20.718 16.797-37.514 37.517-37.514z"/><path id="z49sj" d="M750.69 1713.565c11.063 0 20.031 8.967 20.031 20.03 0 11.062-8.968 20.03-20.031 20.03-11.063 0-20.032-8.968-20.032-20.03 0-11.063 8.969-20.03 20.032-20.03z"/><path id="z49sk" d="M750.69 1724.025c5.285 0 9.57 4.285 9.57 9.57 0 5.284-4.285 9.569-9.57 9.569s-9.57-4.285-9.57-9.57c0-5.284 4.285-9.569 9.57-9.569z"/><path id="z49sl" d="M1270.05 1696.08c20.72 0 37.517 16.796 37.517 37.514 0 20.719-16.797 37.514-37.517 37.514-20.72 0-37.517-16.795-37.517-37.514 0-20.718 16.797-37.514 37.517-37.514z"/><path id="z49sm" d="M1270.05 1713.565c11.063 0 20.031 8.967 20.031 20.03 0 11.062-8.968 20.03-20.031 20.03-11.063 0-20.032-8.968-20.032-20.03 0-11.063 8.969-20.03 20.032-20.03z"/><path id="z49sn" d="M1270.05 1724.025c5.285 0 9.57 4.285 9.57 9.57 0 5.284-4.285 9.569-9.57 9.569s-9.57-4.285-9.57-9.57c0-5.284 4.285-9.569 9.57-9.569z"/><path id="z49so" d="M1366.05 1696.08c20.72 0 37.517 16.796 37.517 37.514 0 20.719-16.797 37.514-37.517 37.514-20.72 0-37.517-16.795-37.517-37.514 0-20.718 16.797-37.514 37.517-37.514z"/><path id="z49sp" d="M1366.05 1713.565c11.063 0 20.031 8.967 20.031 20.03 0 11.062-8.968 20.03-20.031 20.03-11.063 0-20.032-8.968-20.032-20.03 0-11.063 8.969-20.03 20.032-20.03z"/><path id="z49sq" d="M1366.05 1724.025c5.285 0 9.57 4.285 9.57 9.57 0 5.284-4.285 9.569-9.57 9.569s-9.57-4.285-9.57-9.57c0-5.284 4.285-9.569 9.57-9.569z"/><path id="z49ss" d="M494.4 1681.788h988.8v49.917h-75.597c-.988-22.094-19.214-39.703-41.553-39.703-22.34 0-40.566 17.61-41.554 39.703h-13.373c-.988-22.094-19.214-39.703-41.553-39.703-22.34 0-40.566 17.61-41.554 39.703H792.244c-.989-22.094-19.215-39.703-41.554-39.703-22.34 0-40.566 17.61-41.554 39.703h-13.372c-.989-22.094-19.215-39.703-41.554-39.703-22.34 0-40.566 17.61-41.554 39.703h-13.372c-.989-22.094-19.215-39.703-41.554-39.703-22.34 0-40.566 17.61-41.554 39.703H494.4z"/><clipPath id="z49sr"><use fill="#fff" xlink:href="#z49sa"/></clipPath><clipPath id="z49st"><use fill="#fff" xlink:href="#z49sb"/></clipPath><clipPath id="z49su"><use fill="#fff" xlink:href="#z49sc"/></clipPath><clipPath id="z49sv"><use fill="#fff" xlink:href="#z49sd"/></clipPath><clipPath id="z49sw"><use fill="#fff" xlink:href="#z49se"/></clipPath><clipPath id="z49sx"><use fill="#fff" xlink:href="#z49sf"/></clipPath><clipPath id="z49sy"><use fill="#fff" xlink:href="#z49sg"/></clipPath><clipPath id="z49sz"><use fill="#fff" xlink:href="#z49sh"/></clipPath><clipPath id="z49sA"><use fill="#fff" xlink:href="#z49si"/></clipPath><clipPath id="z49sB"><use fill="#fff" xlink:href="#z49sj"/></clipPath><clipPath id="z49sC"><use fill="#fff" xlink:href="#z49sk"/></clipPath><clipPath id="z49sD"><use fill="#fff" xlink:href="#z49sl"/></clipPath><clipPath id="z49sE"><use fill="#fff" xlink:href="#z49sm"/></clipPath><clipPath id="z49sF"><use fill="#fff" xlink:href="#z49sn"/></clipPath><clipPath id="z49sG"><use fill="#fff" xlink:href="#z49so"/></clipPath><clipPath id="z49sH"><use fill="#fff" xlink:href="#z49sp"/></clipPath><clipPath id="z49sI"><use fill="#fff" xlink:href="#z49sq"/></clipPath></defs><g><g transform="translate(-465 -1500)"><use fill="#f9f9f9" xlink:href="#z49sa"/><use fill="#f6fcff" xlink:href="#z49sa"/><use fill="#fff" fill-opacity="0" stroke="#dcebf4" stroke-linecap="round" stroke-linejoin="round" stroke-miterlimit="50" stroke-width="4" clip-path="url(&quot;#z49sr&quot;)" xlink:href="#z49sa"/></g><g transform="translate(-465 -1500)"><use fill="#f9f9f9" xlink:href="#z49ss"/><use fill="#f6fcff" xlink:href="#z49ss"/><use fill="#fff" fill-opacity="0" stroke="#dcebf4" stroke-linecap="round" stroke-linejoin="round" stroke-miterlimit="50" stroke-width="4" clip-path="url(&quot;#z49st&quot;)" xlink:href="#z49ss"/></g><g transform="translate(-465 -1500)"><use fill="#fff" xlink:href="#z49sc"/><use fill="#f6fcff" xlink:href="#z49sc"/><use fill="#fff" fill-opacity="0" stroke="#dcebf4" stroke-linecap="round" stroke-linejoin="round" stroke-miterlimit="50" stroke-width="4" clip-path="url(&quot;#z49su&quot;)" xlink:href="#z49sc"/></g><g transform="translate(-465 -1500)"><use fill="#fff" xlink:href="#z49sd"/><use fill="#f6fcff" xlink:href="#z49sd"/><use fill="#fff" fill-opacity="0" stroke="#dcebf4" stroke-linecap="round" stroke-linejoin="round" stroke-miterlimit="50" stroke-width="4" clip-path="url(&quot;#z49sv&quot;)" xlink:href="#z49sd"/></g><g transform="translate(-465 -1500)"><use fill="#fff" xlink:href="#z49se"/><use fill="#f6fcff" xlink:href="#z49se"/><use fill="#fff" fill-opacity="0" stroke="#dcebf4" stroke-linecap="round" stroke-linejoin="round" stroke-miterlimit="50" stroke-width="4" clip-path="url(&quot;#z49sw&quot;)" xlink:href="#z49se"/></g><g transform="translate(-465 -1500)"><use fill="#fff" xlink:href="#z49sf"/><use fill="#f6fcff" xlink:href="#z49sf"/><use fill="#fff" fill-opacity="0" stroke="#dcebf4" stroke-linecap="round" stroke-linejoin="round" stroke-miterlimit="50" stroke-width="4" clip-path="url(&quot;#z49sx&quot;)" xlink:href="#z49sf"/></g><g transform="translate(-465 -1500)"><use fill="#fff" xlink:href="#z49sg"/><use fill="#f6fcff" xlink:href="#z49sg"/><use fill="#fff" fill-opacity="0" stroke="#dcebf4" stroke-linecap="round" stroke-linejoin="round" stroke-miterlimit="50" stroke-width="4" clip-path="url(&quot;#z49sy&quot;)" xlink:href="#z49sg"/></g><g transform="translate(-465 -1500)"><use fill="#fff" xlink:href="#z49sh"/><use fill="#f6fcff" xlink:href="#z49sh"/><use fill="#fff" fill-opacity="0" stroke="#dcebf4" stroke-linecap="round" stroke-linejoin="round" stroke-miterlimit="50" stroke-width="4" clip-path="url(&quot;#z49sz&quot;)" xlink:href="#z49sh"/></g><g transform="translate(-465 -1500)"><use fill="#fff" xlink:href="#z49si"/><use fill="#f6fcff" xlink:href="#z49si"/><use fill="#fff" fill-opacity="0" stroke="#dcebf4" stroke-linecap="round" stroke-linejoin="round" stroke-miterlimit="50" stroke-width="4" clip-path="url(&quot;#z49sA&quot;)" xlink:href="#z49si"/></g><g transform="translate(-465 -1500)"><use fill="#fff" xlink:href="#z49sj"/><use fill="#f6fcff" xlink:href="#z49sj"/><use fill="#fff" fill-opacity="0" stroke="#dcebf4" stroke-linecap="round" stroke-linejoin="round" stroke-miterlimit="50" stroke-width="4" clip-path="url(&quot;#z49sB&quot;)" xlink:href="#z49sj"/></g><g transform="translate(-465 -1500)"><use fill="#fff" xlink:href="#z49sk"/><use fill="#f6fcff" xlink:href="#z49sk"/><use fill="#fff" fill-opacity="0" stroke="#dcebf4" stroke-linecap="round" stroke-linejoin="round" stroke-miterlimit="50" stroke-width="4" clip-path="url(&quot;#z49sC&quot;)" xlink:href="#z49sk"/></g><g transform="translate(-465 -1500)"><use fill="#fff" xlink:href="#z49sl"/><use fill="#f6fcff" xlink:href="#z49sl"/><use fill="#fff" fill-opacity="0" stroke="#dcebf4" stroke-linecap="round" stroke-linejoin="round" stroke-miterlimit="50" stroke-width="4" clip-path="url(&quot;#z49sD&quot;)" xlink:href="#z49sl"/></g><g transform="translate(-465 -1500)"><use fill="#fff" xlink:href="#z49sm"/><use fill="#f6fcff" xlink:href="#z49sm"/><use fill="#fff" fill-opacity="0" stroke="#dcebf4" stroke-linecap="round" stroke-linejoin="round" stroke-miterlimit="50" stroke-width="4" clip-path="url(&quot;#z49sE&quot;)" xlink:href="#z49sm"/></g><g transform="translate(-465 -1500)"><use fill="#fff" xlink:href="#z49sn"/><use fill="#f6fcff" xlink:href="#z49sn"/><use fill="#fff" fill-opacity="0" stroke="#dcebf4" stroke-linecap="round" stroke-linejoin="round" stroke-miterlimit="50" stroke-width="4" clip-path="url(&quot;#z49sF&quot;)" xlink:href="#z49sn"/></g><g transform="translate(-465 -1500)"><use fill="#fff" xlink:href="#z49so"/><use fill="#f6fcff" xlink:href="#z49so"/><use fill="#fff" fill-opacity="0" stroke="#dcebf4" stroke-linecap="round" stroke-linejoin="round" stroke-miterlimit="50" stroke-width="4" clip-path="url(&quot;#z49sG&quot;)" xlink:href="#z49so"/></g><g transform="translate(-465 -1500)"><use fill="#fff" xlink:href="#z49sp"/><use fill="#f6fcff" xlink:href="#z49sp"/><use fill="#fff" fill-opacity="0" stroke="#dcebf4" stroke-linecap="round" stroke-linejoin="round" stroke-miterlimit="50" stroke-width="4" clip-path="url(&quot;#z49sH&quot;)" xlink:href="#z49sp"/></g><g transform="translate(-465 -1500)"><use fill="#fff" xlink:href="#z49sq"/><use fill="#f6fcff" xlink:href="#z49sq"/><use fill="#fff" fill-opacity="0" stroke="#dcebf4" stroke-linecap="round" stroke-linejoin="round" stroke-miterlimit="50" stroke-width="4" clip-path="url(&quot;#z49sI&quot;)" xlink:href="#z49sq"/></g></g></svg>