<svg xmlns="http://www.w3.org/2000/svg" viewBox="0 0 1090.5 57.86"><defs><style>.cls-1{fill:#fff;}</style></defs><title>line</title><g id="Слой_2" data-name="Слой 2"><g id="Layer_4" data-name="Layer 4"><path class="cls-1" d="M735.89,4.21c-2.63-.13-5.26-.14-7.89-.21V0c2.69.07,5.39.08,8.08.21Z" transform="translate(-1)"/><path class="cls-1" d="M759.32,7.2l-3.87-.77c-1.28-.26-2.59-.42-3.89-.63l.61-3.95c1.33.22,2.68.37,4,.64l4,.79Z" transform="translate(-1)"/><path class="cls-1" d="M767,9c-1.27-.34-2.55-.63-3.83-.94s-2.55-.63-3.84-.86l.82-3.92c1.33.24,2.63.57,4,.89s2.62.62,3.93,1Z" transform="translate(-1)"/><path class="cls-1" d="M789.37,16.7c-1.21-.53-2.44-1-3.67-1.48s-2.44-1-3.68-1.42l1.39-3.75c1.27.44,2.51,1,3.76,1.45s2.51,1,3.74,1.51Z" transform="translate(-1)"/><path class="cls-1" d="M796.62,19.89c-2.39-1.12-4.82-2.15-7.25-3.19L790.91,13c2.48,1.06,5,2.11,7.38,3.24Z" transform="translate(-1)"/><polygon class="cls-1" points="817.02 30.47 809.92 26.83 811.73 23.27 818.85 26.91 817.02 30.47"/><polygon class="cls-1" points="824.13 34.12 817.02 30.47 818.85 26.91 825.95 30.56 824.13 34.12"/><polygon class="cls-1" points="845.88 44.48 842.19 42.87 838.53 41.2 840.22 37.57 843.82 39.22 847.45 40.8 845.88 44.48"/><path class="cls-1" d="M854.36,47.51c-1.26-.48-2.5-1-3.75-1.49s-2.5-1-3.73-1.54l1.57-3.68c1.21.53,2.43,1,3.66,1.51s2.44,1,3.67,1.46Z" transform="translate(-1)"/><path class="cls-1" d="M877.58,54.47c-1.33-.25-2.63-.62-3.94-.93s-2.63-.6-3.92-1l1-3.86c1.26.39,2.55.65,3.82,1s2.54.66,3.83.9Z" transform="translate(-1)"/><path class="cls-1" d="M885.54,55.94c-2.68-.36-5.31-.95-8-1.47l.84-3.91c2.58.5,5.15,1.08,7.75,1.43Z" transform="translate(-1)"/><path class="cls-1" d="M909.71,57.86c-2.69-.08-5.39-.08-8.08-.22l.2-4c2.63.15,5.26.14,7.89.22Z" transform="translate(-1)"/><path class="cls-1" d="M917.8,57.64c-2.69.14-5.39.15-8.09.22v-4c2.62-.07,5.25-.08,7.88-.21Z" transform="translate(-1)"/><path class="cls-1" d="M941.85,54.51c-2.65.53-5.28,1.09-8,1.46L933.27,52c2.6-.36,5.17-.91,7.75-1.42Z" transform="translate(-1)"/><path class="cls-1" d="M949.72,52.63c-1.3.37-2.62.65-3.93,1s-2.61.66-3.94.9L941,50.6c1.29-.23,2.56-.58,3.84-.88s2.56-.59,3.82-1Z" transform="translate(-1)"/><path class="cls-1" d="M972.6,44.73c-1.22.54-2.49,1-3.73,1.51s-2.49,1-3.77,1.45l-1.39-3.75c1.24-.43,2.46-.95,3.69-1.42s2.46-1,3.67-1.48Z" transform="translate(-1)"/><path class="cls-1" d="M980,41.51c-2.43,1.12-4.9,2.18-7.38,3.22L971.07,41c2.43-1,4.86-2.06,7.26-3.17Z" transform="translate(-1)"/><polygon class="cls-1" points="1000.59 30.95 993.45 34.56 991.66 30.98 998.77 27.38 1000.59 30.95"/><polygon class="cls-1" points="1007.71 27.34 1000.59 30.95 998.77 27.38 1005.91 23.77 1007.71 27.34"/><path class="cls-1" d="M1030.26,17.18c-2.44,1-4.85,2.11-7.25,3.21l-1.67-3.63c2.43-1.12,4.88-2.23,7.35-3.26Z" transform="translate(-1)"/><path class="cls-1" d="M1037.59,14.2c-2.45,1-4.92,1.91-7.33,3l-1.57-3.68c2.46-1.09,5-2,7.47-3Z" transform="translate(-1)"/><path class="cls-1" d="M1060.22,7.37c-1.28.26-2.55.61-3.83.92s-2.55.6-3.81,1l-1.07-3.86c1.29-.39,2.61-.69,3.92-1s2.61-.66,3.94-.94Z" transform="translate(-1)"/><path class="cls-1" d="M1068,5.91c-2.6.36-5.16,1-7.74,1.46l-.85-3.91c2.64-.51,5.27-1.13,8-1.5Z" transform="translate(-1)"/><path class="cls-1" d="M1091.5,4c-2.63.08-5.26.07-7.88.22l-.21-4c2.7-.16,5.39-.15,8.09-.23Z" transform="translate(-1)"/><path class="cls-1" d="M8.89,4.21C6.26,4.08,3.63,4.07,1,4V0C3.69.07,6.39.08,9.08.21Z" transform="translate(-1)"/><path class="cls-1" d="M32.32,7.2l-3.87-.77c-1.28-.26-2.59-.42-3.89-.63l.61-3.95c1.33.22,2.68.37,4,.64l4,.79Z" transform="translate(-1)"/><path class="cls-1" d="M40,9c-1.27-.34-2.55-.63-3.83-.94s-2.55-.63-3.84-.86l.82-3.92c1.33.24,2.63.57,4,.89s2.62.62,3.93,1Z" transform="translate(-1)"/><path class="cls-1" d="M62.37,16.7c-1.21-.53-2.44-1-3.67-1.48s-2.44-1-3.68-1.42l1.39-3.75c1.27.44,2.51,1,3.76,1.45s2.51,1,3.74,1.51Z" transform="translate(-1)"/><path class="cls-1" d="M69.62,19.89c-2.39-1.12-4.82-2.15-7.25-3.19L63.91,13c2.48,1.06,5,2.11,7.38,3.24Z" transform="translate(-1)"/><polygon class="cls-1" points="90.02 30.47 82.92 26.83 84.73 23.27 91.85 26.91 90.02 30.47"/><polygon class="cls-1" points="97.13 34.12 90.02 30.47 91.85 26.91 98.95 30.56 97.13 34.12"/><polygon class="cls-1" points="118.89 44.48 115.19 42.87 111.53 41.2 113.22 37.57 116.82 39.22 120.45 40.8 118.89 44.48"/><path class="cls-1" d="M127.36,47.51c-1.26-.48-2.5-1-3.75-1.49s-2.5-1-3.73-1.54l1.57-3.68c1.21.53,2.43,1,3.66,1.51s2.44,1,3.67,1.46Z" transform="translate(-1)"/><path class="cls-1" d="M150.58,54.47c-1.33-.25-2.63-.62-3.94-.93s-2.63-.6-3.92-1l1.05-3.86c1.26.39,2.55.65,3.82,1s2.54.66,3.83.9Z" transform="translate(-1)"/><path class="cls-1" d="M158.54,55.94c-2.68-.36-5.31-.95-8-1.47l.84-3.91c2.58.5,5.15,1.08,7.75,1.43Z" transform="translate(-1)"/><path class="cls-1" d="M182.71,57.86c-2.69-.08-5.39-.08-8.08-.22l.2-4c2.63.15,5.26.14,7.89.22Z" transform="translate(-1)"/><path class="cls-1" d="M190.8,57.64c-2.69.14-5.39.15-8.09.22v-4c2.62-.07,5.25-.08,7.88-.21Z" transform="translate(-1)"/><path class="cls-1" d="M214.85,54.51c-2.65.53-5.28,1.09-8,1.46L206.27,52c2.6-.36,5.17-.91,7.75-1.42Z" transform="translate(-1)"/><path class="cls-1" d="M222.72,52.63c-1.3.37-2.62.65-3.93,1s-2.61.66-3.94.9L214,50.6c1.29-.23,2.56-.58,3.84-.88s2.56-.59,3.82-1Z" transform="translate(-1)"/><path class="cls-1" d="M245.6,44.73c-1.22.54-2.49,1-3.73,1.51s-2.49,1-3.77,1.45l-1.39-3.75c1.24-.43,2.46-.95,3.69-1.42s2.46-1,3.67-1.48Z" transform="translate(-1)"/><path class="cls-1" d="M253,41.51c-2.43,1.12-4.9,2.18-7.38,3.22L244.07,41c2.43-1,4.86-2.06,7.26-3.17Z" transform="translate(-1)"/><polygon class="cls-1" points="273.59 30.95 266.45 34.56 264.66 30.98 271.77 27.38 273.59 30.95"/><polygon class="cls-1" points="280.7 27.34 273.59 30.95 271.77 27.38 278.91 23.77 280.7 27.34"/><path class="cls-1" d="M303.26,17.18c-2.44,1-4.85,2.11-7.25,3.21l-1.67-3.63c2.43-1.12,4.88-2.23,7.35-3.26Z" transform="translate(-1)"/><path class="cls-1" d="M310.59,14.2c-2.45,1-4.92,1.91-7.33,3l-1.57-3.68c2.46-1.09,5-2,7.47-3Z" transform="translate(-1)"/><path class="cls-1" d="M333.22,7.37c-1.28.26-2.55.61-3.83.92s-2.55.6-3.81,1l-1.07-3.86c1.29-.39,2.61-.69,3.92-1s2.61-.66,3.94-.94Z" transform="translate(-1)"/><path class="cls-1" d="M341,5.91c-2.6.36-5.16,1-7.74,1.46l-.85-3.91C335,3,337.64,2.33,340.32,2Z" transform="translate(-1)"/><path class="cls-1" d="M364.5,4c-2.63.08-5.26.07-7.88.22l-.21-4c2.7-.16,5.39-.15,8.09-.23Z" transform="translate(-1)"/><path class="cls-1" d="M372.39,4.21c-2.63-.13-5.26-.14-7.89-.21V0c2.69.07,5.39.08,8.08.21Z" transform="translate(-1)"/><path class="cls-1" d="M395.82,7.2,392,6.43c-1.28-.26-2.59-.42-3.89-.63l.61-3.95c1.33.22,2.68.37,4,.64l4,.79Z" transform="translate(-1)"/><path class="cls-1" d="M403.49,9c-1.27-.34-2.55-.63-3.83-.94s-2.55-.63-3.84-.86l.82-3.92c1.33.24,2.63.57,3.95.89s2.62.62,3.93,1Z" transform="translate(-1)"/><path class="cls-1" d="M425.87,16.7c-1.21-.53-2.44-1-3.67-1.48s-2.44-1-3.68-1.42l1.39-3.75c1.27.44,2.51,1,3.76,1.45s2.51,1,3.74,1.51Z" transform="translate(-1)"/><path class="cls-1" d="M433.12,19.89c-2.39-1.12-4.82-2.15-7.25-3.19L427.41,13c2.48,1.06,4.95,2.11,7.38,3.24Z" transform="translate(-1)"/><polygon class="cls-1" points="453.52 30.47 446.42 26.83 448.23 23.27 455.35 26.91 453.52 30.47"/><polygon class="cls-1" points="460.63 34.12 453.52 30.47 455.35 26.91 462.45 30.56 460.63 34.12"/><polygon class="cls-1" points="482.38 44.48 478.69 42.87 475.03 41.2 476.72 37.57 480.32 39.22 483.95 40.8 482.38 44.48"/><path class="cls-1" d="M490.86,47.51c-1.26-.48-2.5-1-3.75-1.49s-2.5-1-3.73-1.54L485,40.8c1.21.53,2.43,1,3.66,1.51s2.44,1,3.67,1.46Z" transform="translate(-1)"/><path class="cls-1" d="M514.08,54.47c-1.33-.25-2.63-.62-3.94-.93s-2.63-.6-3.92-1l1-3.86c1.26.39,2.55.65,3.82,1s2.54.66,3.83.9Z" transform="translate(-1)"/><path class="cls-1" d="M522,55.94c-2.68-.36-5.31-.95-8-1.47l.84-3.91c2.58.5,5.15,1.08,7.75,1.43Z" transform="translate(-1)"/><path class="cls-1" d="M546.21,57.86c-2.69-.08-5.39-.08-8.08-.22l.2-4c2.63.15,5.26.14,7.89.22Z" transform="translate(-1)"/><path class="cls-1" d="M554.3,57.64c-2.69.14-5.39.15-8.09.22v-4c2.62-.07,5.25-.08,7.88-.21Z" transform="translate(-1)"/><path class="cls-1" d="M578.35,54.51c-2.65.53-5.28,1.09-8,1.46L569.77,52c2.6-.36,5.17-.91,7.75-1.42Z" transform="translate(-1)"/><path class="cls-1" d="M586.22,52.63c-1.3.37-2.62.65-3.93,1s-2.61.66-3.94.9l-.83-3.91c1.29-.23,2.56-.58,3.84-.88s2.56-.59,3.82-1Z" transform="translate(-1)"/><path class="cls-1" d="M609.1,44.73c-1.22.54-2.49,1-3.73,1.51s-2.49,1-3.77,1.45l-1.39-3.75c1.24-.43,2.46-.95,3.69-1.42s2.46-1,3.67-1.48Z" transform="translate(-1)"/><path class="cls-1" d="M616.48,41.51c-2.43,1.12-4.9,2.18-7.38,3.22L607.57,41c2.43-1,4.86-2.06,7.26-3.17Z" transform="translate(-1)"/><polygon class="cls-1" points="637.09 30.95 629.95 34.56 628.16 30.98 635.27 27.38 637.09 30.95"/><polygon class="cls-1" points="644.21 27.34 637.09 30.95 635.27 27.38 642.41 23.77 644.21 27.34"/><path class="cls-1" d="M666.76,17.18c-2.44,1-4.85,2.11-7.25,3.21l-1.67-3.63c2.43-1.12,4.88-2.23,7.35-3.26Z" transform="translate(-1)"/><path class="cls-1" d="M674.09,14.2c-2.45,1-4.92,1.91-7.33,3l-1.57-3.68c2.46-1.09,5-2,7.47-3Z" transform="translate(-1)"/><path class="cls-1" d="M696.72,7.37c-1.28.26-2.55.61-3.83.92s-2.55.6-3.81,1L688,5.42c1.29-.39,2.61-.69,3.92-1s2.61-.66,3.94-.94Z" transform="translate(-1)"/><path class="cls-1" d="M704.46,5.91c-2.6.36-5.16,1-7.74,1.46l-.85-3.91c2.64-.51,5.27-1.13,8-1.5Z" transform="translate(-1)"/><path class="cls-1" d="M728,4c-2.63.08-5.26.07-7.88.22l-.21-4C722.61.07,725.3.08,728,0Z" transform="translate(-1)"/></g></g></svg>