<svg xmlns="http://www.w3.org/2000/svg" xmlns:xlink="http://www.w3.org/1999/xlink" width="18" height="14" viewBox="0 0 18 14"><defs><path id="ppjma" d="M337.146 413.716a.986.986 0 0 1 0-1.426 1.059 1.059 0 0 1 1.454 0l6.095 5.978a1.018 1.018 0 0 1 0 1.455l-6.095 5.978c-.407.4-1.047.4-1.454 0a.986.986 0 0 1 0-1.427l4.364-4.266h-13.492a1.013 1.013 0 0 1-1.018-1.012c0-.557.45-.999 1.018-.999h13.49z"/></defs><g><g transform="translate(-327 -412)"><use fill="#fff" xlink:href="#ppjma"/><use fill="#fff" xlink:href="#ppjma"/></g></g></svg>