<svg xmlns="http://www.w3.org/2000/svg" xmlns:xlink="http://www.w3.org/1999/xlink" width="30" height="28" viewBox="0 0 30 28"><defs><path id="x5z3a" d="M58.059 31.31c1.137 0 2.059 1.198 2.059 2.676v3.04c0 1.48-.922 2.677-2.06 2.677-1.136 0-2.058-1.198-2.058-2.676v-3.041c0-1.478.922-2.677 2.059-2.677zm25.882 0c1.137 0 2.059 1.198 2.059 2.676v3.04c0 1.48-.922 2.677-2.059 2.677s-2.059-1.198-2.059-2.676v-3.041c0-1.478.922-2.677 2.06-2.677zM64.53 27.03c1.137 0 2.06 1.198 2.06 2.676v11.586c0 1.479-.923 2.677-2.06 2.677s-2.058-1.198-2.058-2.677V29.706c0-1.478.921-2.677 2.058-2.677zm12.942 0c1.137 0 2.058 1.198 2.058 2.676v11.586c0 1.479-.921 2.677-2.058 2.677-1.137 0-2.06-1.198-2.06-2.677V29.706c0-1.478.923-2.677 2.06-2.677zM68.94 23a2 2 0 0 1 2-2h.13a2 2 0 0 1 2 2v24a2 2 0 0 1-2 2h-.13a2 2 0 0 1-2-2z"/><linearGradient id="x5z3b" x1="70" x2="72" y1="49" y2="21" gradientUnits="userSpaceOnUse"><stop offset="0" stop-color="#0f33ff"/><stop offset=".76" stop-color="#07d2b3"/><stop offset="1" stop-color="#07d2b3"/></linearGradient></defs><g><g transform="translate(-56 -21)"><use fill="#391557" xlink:href="#x5z3a"/><use fill="url(#x5z3b)" xlink:href="#x5z3a"/></g></g></svg>