<svg xmlns="http://www.w3.org/2000/svg" width="60" height="46.03" viewBox="0 0 60 46.03">
  <metadata><?xpacket begin="﻿" id="W5M0MpCehiHzreSzNTczkc9d"?>
<x:xmpmeta xmlns:x="adobe:ns:meta/" x:xmptk="Adobe XMP Core 5.6-c142 79.160924, 2017/07/13-01:06:39        ">
   <rdf:RDF xmlns:rdf="http://www.w3.org/1999/02/22-rdf-syntax-ns#">
      <rdf:Description rdf:about=""/>
   </rdf:RDF>
</x:xmpmeta>
                                                                                                    
                                                                                                    
                                                                                                    
                                                                                                    
                                                                                                    
                                                                                                    
                                                                                                    
                                                                                                    
                                                                                                    
                                                                                                    
                                                                                                    
                                                                                                    
                                                                                                    
                                                                                                    
                                                                                                    
                                                                                                    
                                                                                                    
                                                                                                    
                                                                                                    
                                                                                                    
                           
<?xpacket end="w"?></metadata>
<defs>
    <style>
      .cls-1 {
        fill: #6f6f6f;
      }

      .cls-1, .cls-2 {
        fill-rule: evenodd;
      }

      .cls-2 {
        fill: #e8be7b;
      }
    </style>
  </defs>
  <path id="black" class="cls-1" d="M1108,5148.21h-52a4,4,0,0,1-4-4v-35.02a1,1,0,0,1,2,0v35.02a2.006,2.006,0,0,0,2,2h52a2.006,2.006,0,0,0,2-2v-38.02a2.006,2.006,0,0,0-2-2h-55a1,1,0,0,1,0-2h55a4,4,0,0,1,4,4v38.02A4,4,0,0,1,1108,5148.21Z" transform="translate(-1052 -5102.19)"/>
  <path id="blue" class="cls-2" d="M1105.69,5108.47a1.008,1.008,0,0,1,0,1.42l-23,23a0.978,0.978,0,0,1-1.41,0,1,1,0,0,1,0-1.41l23-23.01A1,1,0,0,1,1105.69,5108.47Zm-47.38,0a1.008,1.008,0,0,0,0,1.42l23,23a0.978,0.978,0,0,0,1.41,0,1,1,0,0,0,0-1.41l-23-23.01A1,1,0,0,0,1058.31,5108.47Z" transform="translate(-1052 -5102.19)"/>
</svg>
